<svg width="80" height="20" viewBox="0 0 80 20" fill="none" xmlns="http://www.w3.org/2000/svg">
<path d="M36.8186 4.54V2.26H26.4786V16H36.8186V13.72H28.9786V10.14H36.0786V7.86H28.9786V4.54H36.8186ZM46.993 2.02V7.26C46.173 6.1 44.933 5.42 43.413 5.42C40.673 5.42 38.673 7.66 38.673 10.82C38.673 14 40.673 16.24 43.413 16.24C44.933 16.24 46.173 15.56 46.993 14.4V16H49.433V2.02H46.993ZM44.073 14.16C42.333 14.16 41.093 12.76 41.093 10.82C41.093 8.88 42.333 7.5 44.073 7.5C45.793 7.5 46.993 8.88 46.993 10.82C46.993 12.76 45.793 14.16 44.073 14.16ZM59.1798 5.66V12.2C59.0198 13.3 57.9598 14.16 56.6798 14.16C55.3998 14.16 54.4998 13.16 54.4998 11.76V5.66H52.1398V12.24C52.1398 14.58 53.7198 16.24 55.9798 16.24C57.3398 16.24 58.5398 15.58 59.1798 14.62V16H61.6198V5.66H59.1798ZM67.7688 16H70.0688L74.4488 5.66H71.8488L68.9088 13.18L65.9087 5.66H63.3288L67.7688 16ZM77.3847 4.1C78.1447 4.1 78.7647 3.44 78.7647 2.7C78.7647 1.96 78.1447 1.32 77.3847 1.32C76.6047 1.32 75.9847 1.96 75.9847 2.7C75.9847 3.44 76.6047 4.1 77.3847 4.1ZM76.1447 16H78.5847V5.66H76.1447V16Z" fill="#0A033C"/>
<rect width="20" height="20" rx="5" fill="#FF6652"/>
<path d="M5.83584 5.4165C5.83551 5.4165 5.83515 5.4165 5.83483 5.4165C5.72133 5.4165 5.61458 5.46075 5.53398 5.54115C5.45248 5.62244 5.40759 5.73069 5.40759 5.84592V12.2849C5.40759 12.521 5.60044 12.7136 5.83753 12.7142C6.83705 12.7166 8.51165 12.9249 9.66688 14.1339V7.39526C9.66688 7.31522 9.64644 7.24002 9.60785 7.1778C8.65969 5.65085 6.83762 5.41885 5.83584 5.4165Z" fill="white"/>
<path d="M14.593 12.285V5.84592C14.593 5.73069 14.5481 5.62244 14.4666 5.54115C14.386 5.46075 14.2792 5.4165 14.1658 5.4165C14.1654 5.4165 14.1651 5.4165 14.1647 5.4165C13.163 5.41889 11.3409 5.65089 10.3927 7.17784C10.3541 7.24007 10.3337 7.31526 10.3337 7.3953V14.1339C11.489 12.9249 13.1636 12.7166 14.1631 12.7142C14.4001 12.7136 14.593 12.5211 14.593 12.285Z" fill="white"/>
<path d="M15.5704 6.90137H15.2591V12.2849C15.2591 12.8877 14.7679 13.3793 14.1641 13.3808C13.3163 13.3828 11.9184 13.5486 10.9283 14.4856C12.6406 14.0664 14.4456 14.3389 15.4743 14.5734C15.6027 14.6026 15.7355 14.5724 15.8384 14.4904C15.9409 14.4085 15.9998 14.2862 15.9998 14.155V7.3307C15.9998 7.09397 15.8071 6.90137 15.5704 6.90137Z" fill="white"/>
<path d="M4.74069 12.2849V6.90137H4.42933C4.19265 6.90137 4 7.09397 4 7.3307V14.1548C4 14.2862 4.05883 14.4084 4.16137 14.4902C4.2642 14.5722 4.39681 14.6026 4.52546 14.5732C5.55415 14.3388 7.3592 14.0663 9.07137 14.4855C8.08139 13.5485 6.68348 13.3828 5.83568 13.3808C5.23192 13.3793 4.74069 12.8877 4.74069 12.2849Z" fill="white"/>
</svg>
